<svg xmlns="http://www.w3.org/2000/svg" viewBox="0 0 192 192" width="192" height="192">
  <defs>
    <linearGradient id="bg" x1="0" y1="0" x2="1" y2="1">
      <stop offset="0%" stop-color="#0e0e0e"/>
      <stop offset="100%" stop-color="#1c1b1b"/>
    </linearGradient>
    <linearGradient id="g" x1="0%" y1="0%" x2="100%" y2="100%">
      <stop offset="0%" stop-color="#FBF5B7"/>
      <stop offset="50%" stop-color="#D4AF37"/>
      <stop offset="100%" stop-color="#8A6D3B"/>
    </linearGradient>
  </defs>
  <rect width="192" height="192" rx="36" fill="url(#bg)"/>
  <g transform="translate(96 96) scale(0.7) translate(-100 -100)">
    <circle cx="100" cy="100" r="90" fill="none" stroke="url(#g)" stroke-width="2"/>
    <circle cx="100" cy="100" r="65" fill="none" stroke="url(#g)" stroke-width="2"/>
    <path d="M100 35 a65 32.5 0 0 1 0 65 a65 32.5 0 0 0 0 65" fill="none" stroke="url(#g)" stroke-width="2"/>
    <path d="M100 35 c-36 0-65 29-65 65 c0 36 29 65 65 65 c0-18-14-32-32-32 c-18 0-32-14-32-32 c0-18 14-32 32-32 c18 0 32-14 32-32z" fill="url(#g)"/>
    <circle cx="100" cy="67.5" r="9" fill="#121212"/>
    <circle cx="100" cy="132.5" r="9" fill="url(#g)"/>
  </g>
</svg>
