<svg xmlns="http://www.w3.org/2000/svg" viewBox="0 0 200 200" width="200" height="200">
  <defs>
    <linearGradient id="g" x1="0%" y1="0%" x2="100%" y2="100%">
      <stop offset="0%" stop-color="#FBF5B7"/>
      <stop offset="50%" stop-color="#D4AF37"/>
      <stop offset="100%" stop-color="#8A6D3B"/>
    </linearGradient>
    <radialGradient id="halo" cx="50%" cy="50%" r="50%">
      <stop offset="0%" stop-color="#f2ca50" stop-opacity="0.35"/>
      <stop offset="60%" stop-color="#f2ca50" stop-opacity="0.05"/>
      <stop offset="100%" stop-color="#f2ca50" stop-opacity="0"/>
    </radialGradient>
  </defs>
  <circle cx="100" cy="100" r="95" fill="url(#halo)"/>
  <circle cx="100" cy="100" r="90" fill="none" stroke="url(#g)" stroke-width="1.5"/>
  <circle cx="100" cy="100" r="65" fill="none" stroke="url(#g)" stroke-width="2"/>
  <path d="M100 35 a65 32.5 0 0 1 0 65 a65 32.5 0 0 0 0 65" fill="none" stroke="url(#g)" stroke-width="2"/>
  <path d="M100 35 c-36 0-65 29-65 65 c0 36 29 65 65 65 c0-18-14-32-32-32 c-18 0-32-14-32-32 c0-18 14-32 32-32 c18 0 32-14 32-32z" fill="url(#g)"/>
  <circle cx="100" cy="67.5" r="8" fill="#121212"/>
  <circle cx="100" cy="132.5" r="8" fill="url(#g)"/>
  <g stroke="url(#g)" stroke-width="1" opacity="0.55" fill="none">
    <line x1="100" y1="10" x2="100" y2="20"/>
    <line x1="100" y1="180" x2="100" y2="190"/>
    <line x1="10" y1="100" x2="20" y2="100"/>
    <line x1="180" y1="100" x2="190" y2="100"/>
  </g>
</svg>
